<?xml version="1.0" encoding="iso-8859-1"?>
<!-- Generator: Adobe Illustrator 22.1.0, SVG Export Plug-In . SVG Version: 6.00 Build 0)  -->
<svg xmlns="http://www.w3.org/2000/svg" xmlns:xlink="http://www.w3.org/1999/xlink" version="1.1" id="Layer_1" x="0px" y="0px" viewBox="0 0 100 100" style="enable-background:new 0 0 100 100;" xml:space="preserve" width="50px" height="50px">
<g>
	<circle style="fill:#00A5A5;" cx="13" cy="29" r="2"/>
	<circle style="fill:#F1BC19;" cx="77" cy="13" r="1"/>
	<circle style="fill:#C0E5E4;" cx="50" cy="50" r="37"/>
	<circle style="fill:#F1BC19;" cx="83" cy="15" r="4"/>
	<circle style="fill:#00A5A5;" cx="87" cy="24" r="2"/>
	<circle style="fill:#FBCD59;" cx="81" cy="76" r="2"/>
	<circle style="fill:#FBCD59;" cx="15" cy="63" r="4"/>
	<circle style="fill:#00A5A5;" cx="25" cy="87" r="2"/>
	<circle style="fill:#FFFFFF;" cx="18.5" cy="53.5" r="2.5"/>
	<circle style="fill:#F1BC19;" cx="21" cy="67" r="1"/>
	<circle style="fill:#FFFFFF;" cx="80" cy="34" r="1"/>
</g>
<g>
	<path style="fill:#EE3E54;" d="M63,27v-0.001l-0.006,45.995l-12.416-8.81C50.405,64.061,50.203,64,50,64s-0.405,0.061-0.579,0.184   L37,72.999V27H63"/>
	<path style="fill:#472B29;" d="M62.6,27.4v44.824l-11.79-8.366C50.568,63.686,50.284,63.6,50,63.6c-0.284,0-0.568,0.086-0.81,0.258   L37.4,72.224V27.4H62.6 M63,26H37c-0.552,0-1,0.447-1,0.999v46C36,73.589,36.485,74,37.004,74c0.197,0,0.399-0.059,0.581-0.19   L50,65l12.416,8.81c0.182,0.131,0.384,0.19,0.581,0.19C63.515,74,64,73.589,64,72.999v-46C64,26.447,63.552,26,63,26L63,26z"/>
</g>
<g>
	<g>
		<circle style="fill:#FBCD59;" cx="50" cy="42" r="8.5"/>
		<path style="fill:#472B29;" d="M50,34c4.411,0,8,3.589,8,8s-3.589,8-8,8s-8-3.589-8-8S45.589,34,50,34 M50,33    c-4.963,0-9,4.038-9,9s4.037,9,9,9c4.963,0,9-4.038,9-9S54.963,33,50,33L50,33z"/>
	</g>
	<g>
		<path style="fill:#F1BC19;" d="M49.999,37.25l0.011,0.007l1.32,2.666l0.058,0.118l0.13,0.019l2.958,0.446l-2.135,2.076    l-0.094,0.092l0.022,0.13l0.486,2.945l-2.64-1.384l-0.116-0.061l-0.116,0.061l-2.657,1.372l0.504-2.933l0.022-0.13l-0.094-0.092    l-2.128-2.094l2.95-0.428l0.13-0.019l0.058-0.118l1.32-2.667C49.991,37.252,49.995,37.25,49.999,37.25"/>
		<path style="fill:#472B29;" d="M49.999,37.799l1.107,2.236l0.117,0.235l0.26,0.038l2.472,0.358l-1.787,1.737l-0.189,0.184    l0.045,0.26l0.423,2.458l-2.214-1.161l-0.232-0.122l-0.232,0.122l-2.212,1.16l0.423-2.458l0.045-0.26l-0.189-0.184l-1.787-1.737    l2.471-0.358l0.26-0.038l0.117-0.235L49.999,37.799 M49.999,37c-0.1,0-0.191,0.056-0.235,0.146l-1.32,2.666l-2.95,0.428    c-0.099,0.015-0.18,0.083-0.212,0.178s-0.005,0.199,0.066,0.268l2.135,2.076l-0.504,2.933c-0.017,0.098,0.024,0.197,0.105,0.255    c0.045,0.033,0.1,0.05,0.154,0.05c0.042,0,0.083-0.009,0.121-0.029l2.64-1.384l2.64,1.384C52.678,45.99,52.72,46,52.762,46    c0.054,0,0.107-0.016,0.152-0.05c0.082-0.059,0.122-0.157,0.105-0.255l-0.504-2.933l2.135-2.076    c0.071-0.07,0.097-0.173,0.066-0.268s-0.113-0.163-0.212-0.178l-2.951-0.428l-1.32-2.666C50.19,37.056,50.099,37,49.999,37    L49.999,37z"/>
	</g>
	<g>
		<path style="fill:#472B29;" d="M56.513,44c-0.021,0-0.043-0.003-0.065-0.008c-0.133-0.036-0.212-0.173-0.177-0.307    C56.423,43.119,56.5,42.552,56.5,42c0-3.509-2.75-6.358-6.259-6.487c-0.138-0.005-0.246-0.121-0.241-0.259    c0.005-0.138,0.091-0.247,0.259-0.241C54.039,35.152,57,38.221,57,42c0,0.596-0.083,1.207-0.246,1.815    C56.724,43.926,56.623,44,56.513,44z"/>
		<path style="fill:#472B29;" d="M49.75,48.987c-0.003,0-0.006,0-0.009,0c-0.509-0.019-1.033-0.1-1.556-0.24    c-0.133-0.036-0.212-0.173-0.176-0.306c0.036-0.133,0.172-0.211,0.306-0.176c0.486,0.13,0.973,0.206,1.444,0.223    c0.138,0.005,0.246,0.121,0.241,0.259C49.995,48.881,49.884,48.987,49.75,48.987z"/>
		<path style="fill:#472B29;" d="M46.75,48.155c-0.041,0-0.083-0.01-0.121-0.031c-0.156-0.086-0.303-0.185-0.449-0.284l-0.07-0.047    c-0.114-0.077-0.145-0.232-0.068-0.347c0.078-0.115,0.234-0.143,0.347-0.068l0.071,0.048c0.134,0.091,0.268,0.182,0.41,0.26    c0.121,0.067,0.165,0.219,0.099,0.34C46.923,48.108,46.838,48.155,46.75,48.155z"/>
		<path style="fill:#472B29;" d="M45.226,47c-0.064,0-0.128-0.024-0.177-0.073C43.728,45.604,43,43.855,43,42    c0-2.117,0.945-4.098,2.592-5.436c0.107-0.087,0.263-0.071,0.352,0.037c0.087,0.107,0.07,0.265-0.037,0.352    C44.377,38.195,43.5,40.034,43.5,42c0,1.721,0.676,3.346,1.902,4.573c0.098,0.098,0.098,0.256,0,0.354    C45.354,46.976,45.29,47,45.226,47z"/>
	</g>
</g>
<g>
	<path style="fill:#472B29;" d="M39.25,58C39.112,58,39,57.888,39,57.75v-28.5c0-0.138,0.112-0.25,0.25-0.25s0.25,0.112,0.25,0.25   v28.5C39.5,57.888,39.388,58,39.25,58z"/>
	<path style="fill:#472B29;" d="M39.25,60C39.112,60,39,59.888,39,59.75v-0.5c0-0.138,0.112-0.25,0.25-0.25s0.25,0.112,0.25,0.25   v0.5C39.5,59.888,39.388,60,39.25,60z"/>
	<path style="fill:#472B29;" d="M39.25,62C39.112,62,39,61.888,39,61.75v-0.5c0-0.138,0.112-0.25,0.25-0.25s0.25,0.112,0.25,0.25   v0.5C39.5,61.888,39.388,62,39.25,62z"/>
	<path style="fill:#472B29;" d="M39.25,64C39.112,64,39,63.888,39,63.75v-0.5c0-0.138,0.112-0.25,0.25-0.25s0.25,0.112,0.25,0.25   v0.5C39.5,63.888,39.388,64,39.25,64z"/>
	<path style="fill:#472B29;" d="M39.25,66C39.112,66,39,65.888,39,65.75v-0.5c0-0.138,0.112-0.25,0.25-0.25s0.25,0.112,0.25,0.25   v0.5C39.5,65.888,39.388,66,39.25,66z"/>
	<path style="fill:#472B29;" d="M39.25,68C39.112,68,39,67.888,39,67.75v-0.5c0-0.138,0.112-0.25,0.25-0.25s0.25,0.112,0.25,0.25   v0.5C39.5,67.888,39.388,68,39.25,68z"/>
</g>
<g>
	<path style="fill:#472B29;" d="M60.75,68c-0.138,0-0.25-0.112-0.25-0.25v-28.5c0-0.138,0.112-0.25,0.25-0.25S61,39.112,61,39.25   v28.5C61,67.888,60.888,68,60.75,68z"/>
	<path style="fill:#472B29;" d="M60.75,38c-0.138,0-0.25-0.112-0.25-0.25v-0.5c0-0.138,0.112-0.25,0.25-0.25S61,37.112,61,37.25v0.5   C61,37.888,60.888,38,60.75,38z"/>
	<path style="fill:#472B29;" d="M60.75,36c-0.138,0-0.25-0.112-0.25-0.25v-0.5c0-0.138,0.112-0.25,0.25-0.25S61,35.112,61,35.25v0.5   C61,35.888,60.888,36,60.75,36z"/>
	<path style="fill:#472B29;" d="M60.75,34c-0.138,0-0.25-0.112-0.25-0.25v-0.5c0-0.138,0.112-0.25,0.25-0.25S61,33.112,61,33.25v0.5   C61,33.888,60.888,34,60.75,34z"/>
	<path style="fill:#472B29;" d="M60.75,32c-0.138,0-0.25-0.112-0.25-0.25v-0.5c0-0.138,0.112-0.25,0.25-0.25S61,31.112,61,31.25v0.5   C61,31.888,60.888,32,60.75,32z"/>
	<path style="fill:#472B29;" d="M60.75,30c-0.138,0-0.25-0.112-0.25-0.25v-0.5c0-0.138,0.112-0.25,0.25-0.25S61,29.112,61,29.25v0.5   C61,29.888,60.888,30,60.75,30z"/>
</g>
</svg>
